/* XPM */
static char * close_prelight_xpm[] = {
"32 32 36 1",
" 	c None",
".	c #38404C",
"+	c #222B39",
"@	c #32363F",
"#	c #57524B",
"$	c #6F6253",
"%	c #7A6B56",
"&	c #56514B",
"*	c #32373E",
"=	c #242D39",
"-	c #58534B",
";	c #7D6D57",
">	c #7E6E58",
",	c #7D6E58",
"'	c #242D3A",
")	c #675D51",
"!	c #665D50",
"~	c #59534B",
"{	c #84745F",
"]	c #57514B",
"^	c #EFEDEA",
"/	c #9E9282",
"(	c #31373E",
"_	c #9C907F",
":	c #F4F2F1",
"<	c #9F9483",
"[	c #55504A",
"}	c #6F6353",
"|	c #6E6253",
"1	c #7A6B57",
"2	c #7A6A57",
"3	c #796A56",
"4	c #31363E",
"5	c #665C50",
"6	c #655C50",
"7	c #232C3A",
"................................",
"++++++++++++++++++++++++++++++++",
"++++++++++++++++++++++++++++++++",
"++++++++++++++++++++++++++++++++",
"++++++++++++++++++++++++++++++++",
"++++++++++++++++++++++++++++++++",
"++++++++++++++++++++++++++++++++",
"++++++++++++++++++++++++++++++++",
"++++++++++++@#$%%$&*++++++++++++",
"++++++++++=-;>>>>>>,#'++++++++++",
"+++++++++=)>>>>>>>>>>!'+++++++++",
"+++++++++~>>{>>>>>>{>>]+++++++++",
"++++++++@;>{^/>>>>/^{>,(++++++++",
"++++++++#>>>_:<>>_:<>>>[++++++++",
"++++++++}>>>>_:<_:<>>>>|++++++++",
"++++++++1>>>>>/::/>>>>>2++++++++",
"++++++++2>>>>>/::/>>>>>3++++++++",
"++++++++}>>>>_:<_:<>>>>|++++++++",
"++++++++&>>>_:<>>_:<>>>[++++++++",
"++++++++*,>{^/>>>>/^{>,4++++++++",
"+++++++++#>>{>>>>>>{>>#+++++++++",
"+++++++++'5>>>>>>>>>>67+++++++++",
"++++++++++'],>>>>>>,#7++++++++++",
"++++++++++++([|11|[4++++++++++++",
"++++++++++++++++++++++++++++++++",
"++++++++++++++++++++++++++++++++",
"++++++++++++++++++++++++++++++++",
"++++++++++++++++++++++++++++++++",
"++++++++++++++++++++++++++++++++",
"++++++++++++++++++++++++++++++++",
"++++++++++++++++++++++++++++++++",
"++++++++++++++++++++++++++++++++"};
