/* XPM */
static char * close_active_xpm[] = {
"32 32 30 1",
" 	c None",
".	c #38404C",
"+	c #222B39",
"@	c #32363F",
"#	c #57524B",
"$	c #6F6253",
"%	c #7A6B56",
"&	c #56514B",
"*	c #32373E",
"=	c #242D39",
"-	c #58534B",
";	c #7D6D57",
">	c #7E6E58",
",	c #7D6E58",
"'	c #242D3A",
")	c #675D51",
"!	c #665D50",
"~	c #59534B",
"{	c #57514B",
"]	c #31373E",
"^	c #55504A",
"/	c #6F6353",
"(	c #6E6253",
"_	c #7A6B57",
":	c #7A6A57",
"<	c #796A56",
"[	c #31363E",
"}	c #665C50",
"|	c #655C50",
"1	c #232C3A",
"................................",
"++++++++++++++++++++++++++++++++",
"++++++++++++++++++++++++++++++++",
"++++++++++++++++++++++++++++++++",
"++++++++++++++++++++++++++++++++",
"++++++++++++++++++++++++++++++++",
"++++++++++++++++++++++++++++++++",
"++++++++++++++++++++++++++++++++",
"++++++++++++@#$%%$&*++++++++++++",
"++++++++++=-;>>>>>>,#'++++++++++",
"+++++++++=)>>>>>>>>>>!'+++++++++",
"+++++++++~>>>>>>>>>>>>{+++++++++",
"++++++++@;>>>>>>>>>>>>,]++++++++",
"++++++++#>>>>>>>>>>>>>>^++++++++",
"++++++++/>>>>>>>>>>>>>>(++++++++",
"++++++++_>>>>>>>>>>>>>>:++++++++",
"++++++++:>>>>>>>>>>>>>><++++++++",
"++++++++/>>>>>>>>>>>>>>(++++++++",
"++++++++&>>>>>>>>>>>>>>^++++++++",
"++++++++*,>>>>>>>>>>>>,[++++++++",
"+++++++++#>>>>>>>>>>>>#+++++++++",
"+++++++++'}>>>>>>>>>>|1+++++++++",
"++++++++++'{,>>>>>>,#1++++++++++",
"++++++++++++]^(__(^[++++++++++++",
"++++++++++++++++++++++++++++++++",
"++++++++++++++++++++++++++++++++",
"++++++++++++++++++++++++++++++++",
"++++++++++++++++++++++++++++++++",
"++++++++++++++++++++++++++++++++",
"++++++++++++++++++++++++++++++++",
"++++++++++++++++++++++++++++++++",
"++++++++++++++++++++++++++++++++"};
