/* XPM */
static char *hide_xpm[] = {
"32 32 32 1",
" 	c None",
"B	c #38404C",
"C	c #222B39",
"D	c #2F3847",
"E	c #4E5766",
"F	c #616A7B",
"G	c #6A7484",
"H	c #4D5666",
"I	c #2F3946",
"J	c #242D3B",
"K	c #4F5867",
"L	c #6D7687",
"M	c #6E7788",
"N	c #6D7787",
"O	c #4E5767",
"P	c #5B6474",
"Q	c #5B6374",
"R	c #4F5868",
"S	c #4D5766",
"T	c #2F3846",
"U	c #4C5565",
"V	c #626A7B",
"W	c #61697B",
"X	c #6B7385",
"Y	c #6A7384",
"Z	c #6A7284",
"a	c #FFFFFF",
"b	c #4C5564",
"c	c #2E3846",
"d	c #5A6373",
"e	c #5A6273",
"f	c #232C3B",
"BBBBBBBBBBBBBBBBBBBBBBBBBBBBBBBB",
"CCCCCCCCCCCCCCCCCCCCCCCCCCCCCCCC",
"CCCCCCCCCCCCCCCCCCCCCCCCCCCCCCCC",
"CCCCCCCCCCCCCCCCCCCCCCCCCCCCCCCC",
"CCCCCCCCCCCCCCCCCCCCCCCCCCCCCCCC",
"CCCCCCCCCCCCCCCCCCCCCCCCCCCCCCCC",
"CCCCCCCCCCCCCCCCCCCCCCCCCCCCCCCC",
"CCCCCCCCCCCCCCCCCCCCCCCCCCCCCCCC",
"CCCCCCCCCCCCDEFGGFHICCCCCCCCCCCC",
"CCCCCCCCCCJKLMMMMMMNOJCCCCCCCCCC",
"CCCCCCCCCJPMMMMMMMMMMQJCCCCCCCCC",
"CCCCCCCCCRMMMMMMMMMMMMSCCCCCCCCC",
"CCCCCCCCDLMMMMMMMMMMMMNTCCCCCCCC",
"CCCCCCCCEMMMMMMMMMMMMMMUCCCCCCCC",
"CCCCCCCCVMMMMMMMMMMMMMMWCCCCCCCC",
"CCCCCCCCXMMMMMMMMMMMMMMYCCCCCCCC",
"CCCCCCCCYMMMMMMMMMMMMMMZCCCCCCCC",
"CCCCCCCCVMMaaaaaaaaaaMMWCCCCCCCC",
"CCCCCCCCHMMMMMMMMMMMMMMbCCCCCCCC",
"CCCCCCCCINMMMMMMMMMMMMNcCCCCCCCC",
"CCCCCCCCCOMMMMMMMMMMMMECCCCCCCCC",
"CCCCCCCCCJdMMMMMMMMMMefCCCCCCCCC",
"CCCCCCCCCCJSNMMMMMMNEfCCCCCCCCCC",
"CCCCCCCCCCCCTUWXXWbcCCCCCCCCCCCC",
"CCCCCCCCCCCCCCCCCCCCCCCCCCCCCCCC",
"CCCCCCCCCCCCCCCCCCCCCCCCCCCCCCCC",
"CCCCCCCCCCCCCCCCCCCCCCCCCCCCCCCC",
"CCCCCCCCCCCCCCCCCCCCCCCCCCCCCCCC",
"CCCCCCCCCCCCCCCCCCCCCCCCCCCCCCCC",
"CCCCCCCCCCCCCCCCCCCCCCCCCCCCCCCC",
"CCCCCCCCCCCCCCCCCCCCCCCCCCCCCCCC",
"CCCCCCCCCCCCCCCCCCCCCCCCCCCCCCCC"
};
