/* XPM */
static char * maximize_toggled_prelight_xpm[] = {
"32 32 28 1",
" 	c None",
".	c #38404C",
"+	c #222B39",
"@	c #25303C",
"#	c #2C3E43",
"$	c #304547",
"%	c #324A48",
"&	c #2C3D42",
"*	c #25313C",
"=	c #222C39",
"-	c #2C3E42",
";	c #334A48",
">	c #334B49",
",	c #324B49",
"'	c #222C3A",
")	c #2F4345",
"!	c #2B3D42",
"~	c #99A5A4",
"{	c #25313B",
"]	c #314646",
"^	c #FFFFFF",
"/	c #304546",
"(	c #334949",
"_	c #324948",
":	c #2B3C41",
"<	c #24303C",
"[	c #2F4245",
"}	c #2E4245",
"................................",
"++++++++++++++++++++++++++++++++",
"++++++++++++++++++++++++++++++++",
"++++++++++++++++++++++++++++++++",
"++++++++++++++++++++++++++++++++",
"++++++++++++++++++++++++++++++++",
"++++++++++++++++++++++++++++++++",
"++++++++++++++++++++++++++++++++",
"++++++++++++@#$%%$&*++++++++++++",
"++++++++++=-;>>>>>>,-'++++++++++",
"+++++++++=)>>>>>>>>>>)'+++++++++",
"+++++++++->>>>>>>>>>>>!+++++++++",
"++++++++@;>>>>~~~~~~>>,{++++++++",
"++++++++#>>>>>>>>>>~>>>!++++++++",
"++++++++]>>>^^^^^^>~>>>/++++++++",
"++++++++(>>>^>>>>^>~>>>_++++++++",
"++++++++_>>>^>>>>^>~>>>_++++++++",
"++++++++]>>>^>>>>^>~>>>/++++++++",
"++++++++&>>>^>>>>^>>>>>:++++++++",
"++++++++*,>>^^^^^^>>>>,<++++++++",
"+++++++++->>>>>>>>>>>>#+++++++++",
"+++++++++'[>>>>>>>>>>}++++++++++",
"++++++++++'!,>>>>>>,#+++++++++++",
"++++++++++++{!/((/:<++++++++++++",
"++++++++++++++++++++++++++++++++",
"++++++++++++++++++++++++++++++++",
"++++++++++++++++++++++++++++++++",
"++++++++++++++++++++++++++++++++",
"++++++++++++++++++++++++++++++++",
"++++++++++++++++++++++++++++++++",
"++++++++++++++++++++++++++++++++",
"++++++++++++++++++++++++++++++++"};
