/* XPM */
static char * menu_active_xpm[] = {
"32 32 27 1",
" 	c None",
".	c #38404C",
"+	c #222B39",
"@	c #263B46",
"#	c #2F6063",
"$	c #357876",
"%	c #38847E",
"&	c #2F6062",
"*	c #263B45",
"=	c #232E3B",
"-	c #306263",
";	c #398781",
">	c #398882",
",	c #388781",
"'	c #2F6163",
")	c #222D3B",
"!	c #337070",
"~	c #33706F",
"{	c #306364",
"]	c #2F5F61",
"^	c #367976",
"/	c #38847F",
"(	c #38837E",
"_	c #2F5E61",
":	c #253A45",
"<	c #336F6F",
"[	c #336F6E",
"................................",
"++++++++++++++++++++++++++++++++",
"++++++++++++++++++++++++++++++++",
"++++++++++++++++++++++++++++++++",
"++++++++++++++++++++++++++++++++",
"++++++++++++++++++++++++++++++++",
"++++++++++++++++++++++++++++++++",
"++++++++++++++++++++++++++++++++",
"++++++++++++@#$%%$&*++++++++++++",
"++++++++++=-;>>>>>>,')++++++++++",
"+++++++++=!>>>>>>>>>>~)+++++++++",
"+++++++++{>>>>>>>>>>>>#+++++++++",
"++++++++@;>>>>>>>>>>>>,*++++++++",
"++++++++#>>>>>>>>>>>>>>]++++++++",
"++++++++^>>>>>>>>>>>>>>$++++++++",
"++++++++/>>>>>>>>>>>>>>(++++++++",
"++++++++(>>>>>>>>>>>>>>(++++++++",
"++++++++^>>>>>>>>>>>>>>$++++++++",
"++++++++&>>>>>>>>>>>>>>_++++++++",
"++++++++*,>>>>>>>>>>>>,:++++++++",
"+++++++++'>>>>>>>>>>>>#+++++++++",
"+++++++++)<>>>>>>>>>>[)+++++++++",
"++++++++++)#,>>>>>>,#)++++++++++",
"++++++++++++*]$//$_:++++++++++++",
"++++++++++++++++++++++++++++++++",
"++++++++++++++++++++++++++++++++",
"++++++++++++++++++++++++++++++++",
"++++++++++++++++++++++++++++++++",
"++++++++++++++++++++++++++++++++",
"++++++++++++++++++++++++++++++++",
"++++++++++++++++++++++++++++++++",
"++++++++++++++++++++++++++++++++"};
