/* XPM */
static char *menu_xpm[] = {
"32 32 30 1",
" 	c None",
"B	c #38404C",
"C	c #222B39",
"D	c #263B46",
"E	c #2F6063",
"F	c #357876",
"G	c #38847E",
"H	c #2F6062",
"I	c #263B45",
"J	c #232E3B",
"K	c #306263",
"L	c #398781",
"M	c #398882",
"N	c #388781",
"O	c #2F6163",
"P	c #222D3B",
"Q	c #337070",
"R	c #33706F",
"S	c #306364",
"T	c #B1D0CD",
"U	c #61A09B",
"V	c #2F5F61",
"W	c #367976",
"X	c #38847F",
"Y	c #88B8B4",
"Z	c #38837E",
"a	c #2F5E61",
"b	c #253A45",
"c	c #336F6F",
"d	c #336F6E",
"BBBBBBBBBBBBBBBBBBBBBBBBBBBBBBBB",
"CCCCCCCCCCCCCCCCCCCCCCCCCCCCCCCC",
"CCCCCCCCCCCCCCCCCCCCCCCCCCCCCCCC",
"CCCCCCCCCCCCCCCCCCCCCCCCCCCCCCCC",
"CCCCCCCCCCCCCCCCCCCCCCCCCCCCCCCC",
"CCCCCCCCCCCCCCCCCCCCCCCCCCCCCCCC",
"CCCCCCCCCCCCCCCCCCCCCCCCCCCCCCCC",
"CCCCCCCCCCCCCCCCCCCCCCCCCCCCCCCC",
"CCCCCCCCCCCCDEFGGFHICCCCCCCCCCCC",
"CCCCCCCCCCJKLMMMMMMNOPCCCCCCCCCC",
"CCCCCCCCCJQMMMMMMMMMMRPCCCCCCCCC",
"CCCCCCCCCSMMMMMMMMMMMMECCCCCCCCC",
"CCCCCCCCDLMMTTTTTTTTMMNICCCCCCCC",
"CCCCCCCCEMMMGGGGGGGGMMMVCCCCCCCC",
"CCCCCCCCWMMMMMMMMMGGMMMFCCCCCCCC",
"CCCCCCCCXMMMTTTTTTTTMMMZCCCCCCCC",
"CCCCCCCCZMMGGGGGGGGGMMMZCCCCCCCC",
"CCCCCCCCWMMMMMMMMMMMMMMFCCCCCCCC",
"CCCCCCCCHMMMTTTTTTTTMMMaCCCCCCCC",
"CCCCCCCCINMGGGGGGGGGMMNbCCCCCCCC",
"CCCCCCCCCOMMMMMMMMMMMMECCCCCCCCC",
"CCCCCCCCCPcMMMMMMMMMMdPCCCCCCCCC",
"CCCCCCCCCCPENMMMMMMNEPCCCCCCCCCC",
"CCCCCCCCCCCCIVFXXFabCCCCCCCCCCCC",
"CCCCCCCCCCCCCCCCCCCCCCCCCCCCCCCC",
"CCCCCCCCCCCCCCCCCCCCCCCCCCCCCCCC",
"CCCCCCCCCCCCCCCCCCCCCCCCCCCCCCCC",
"CCCCCCCCCCCCCCCCCCCCCCCCCCCCCCCC",
"CCCCCCCCCCCCCCCCCCCCCCCCCCCCCCCC",
"CCCCCCCCCCCCCCCCCCCCCCCCCCCCCCCC",
"CCCCCCCCCCCCCCCCCCCCCCCCCCCCCCCC",
"CCCCCCCCCCCCCCCCCCCCCCCCCCCCCCCC"
};
