/* XPM */
static char * shade_toggled_prelight_xpm[] = {
"32 32 43 1",
" 	c None",
".	c #38404C",
"+	c #222B39",
"@	c #263B46",
"#	c #2F6063",
"$	c #357876",
"%	c #38847E",
"&	c #2F6062",
"*	c #263B45",
"=	c #232E3B",
"-	c #306263",
";	c #398781",
">	c #398882",
",	c #388781",
"'	c #2F6163",
")	c #222D3B",
"!	c #337070",
"~	c #33706F",
"{	c #306364",
"]	c #5C9D98",
"^	c #49928C",
"/	c #2F5F61",
"(	c #367976",
"_	c #63A19C",
":	c #D8E8E6",
"<	c #73ABA7",
"[	c #38847F",
"}	c #47908B",
"|	c #BED8D6",
"1	c #B6D3D1",
"2	c #49918C",
"3	c #38837E",
"4	c #76ACA8",
"5	c #DBE9E8",
"6	c #97C0BD",
"7	c #428E88",
"8	c #96C0BD",
"9	c #DDEAE9",
"0	c #408C86",
"a	c #2F5E61",
"b	c #253A45",
"c	c #336F6F",
"d	c #336F6E",
"................................",
"++++++++++++++++++++++++++++++++",
"++++++++++++++++++++++++++++++++",
"++++++++++++++++++++++++++++++++",
"++++++++++++++++++++++++++++++++",
"++++++++++++++++++++++++++++++++",
"++++++++++++++++++++++++++++++++",
"++++++++++++++++++++++++++++++++",
"++++++++++++@#$%%$&*++++++++++++",
"++++++++++=-;>>>>>>,')++++++++++",
"+++++++++=!>>>>>>>>>>~)+++++++++",
"+++++++++{>>>>>>>>>>>>#+++++++++",
"++++++++@;>>>>>>>>>>>>,*++++++++",
"++++++++#]^>>>>>>>>>>^]/++++++++",
"++++++++(_:<>>>>>>>><:_$++++++++",
"++++++++[>}|12>>>>21|}>3++++++++",
"++++++++3>>>45677654>>>3++++++++",
"++++++++(>>>>789987>>>>$++++++++",
"++++++++&>>>>>>00>>>>>>a++++++++",
"++++++++*,>>>>>>>>>>>>,b++++++++",
"+++++++++'>>>>>>>>>>>>#+++++++++",
"+++++++++)c>>>>>>>>>>d)+++++++++",
"++++++++++)#,>>>>>>,#)++++++++++",
"++++++++++++*/$[[$ab++++++++++++",
"++++++++++++++++++++++++++++++++",
"++++++++++++++++++++++++++++++++",
"++++++++++++++++++++++++++++++++",
"++++++++++++++++++++++++++++++++",
"++++++++++++++++++++++++++++++++",
"++++++++++++++++++++++++++++++++",
"++++++++++++++++++++++++++++++++",
"++++++++++++++++++++++++++++++++"};
