/* XPM */
static char * shade_prelight_xpm[] = {
"32 32 43 1",
" 	c None",
".	c #38404C",
"+	c #222B39",
"@	c #263B46",
"#	c #2F6063",
"$	c #357876",
"%	c #38847E",
"&	c #2F6062",
"*	c #263B45",
"=	c #232E3B",
"-	c #306263",
";	c #398781",
">	c #398882",
",	c #388781",
"'	c #2F6163",
")	c #222D3B",
"!	c #337070",
"~	c #33706F",
"{	c #306364",
"]	c #408C86",
"^	c #2F5F61",
"/	c #367976",
"(	c #428E88",
"_	c #96C0BD",
":	c #DDEAE9",
"<	c #38847F",
"[	c #76ACA8",
"}	c #DBE9E8",
"|	c #97C0BD",
"1	c #38837E",
"2	c #47908B",
"3	c #BED8D6",
"4	c #B6D3D1",
"5	c #49918C",
"6	c #63A19C",
"7	c #D8E8E6",
"8	c #73ABA7",
"9	c #5C9D98",
"0	c #49928C",
"a	c #2F5E61",
"b	c #253A45",
"c	c #336F6F",
"d	c #336F6E",
"................................",
"++++++++++++++++++++++++++++++++",
"++++++++++++++++++++++++++++++++",
"++++++++++++++++++++++++++++++++",
"++++++++++++++++++++++++++++++++",
"++++++++++++++++++++++++++++++++",
"++++++++++++++++++++++++++++++++",
"++++++++++++++++++++++++++++++++",
"++++++++++++@#$%%$&*++++++++++++",
"++++++++++=-;>>>>>>,')++++++++++",
"+++++++++=!>>>>>>>>>>~)+++++++++",
"+++++++++{>>>>>>>>>>>>#+++++++++",
"++++++++@;>>>>>>>>>>>>,*++++++++",
"++++++++#>>>>>>]]>>>>>>^++++++++",
"++++++++/>>>>(_::_(>>>>$++++++++",
"++++++++<>>>[}|((|}[>>>1++++++++",
"++++++++1>2345>>>>5432>1++++++++",
"++++++++/678>>>>>>>>876$++++++++",
"++++++++&90>>>>>>>>>>09a++++++++",
"++++++++*,>>>>>>>>>>>>,b++++++++",
"+++++++++'>>>>>>>>>>>>#+++++++++",
"+++++++++)c>>>>>>>>>>d)+++++++++",
"++++++++++)#,>>>>>>,#)++++++++++",
"++++++++++++*^$<<$ab++++++++++++",
"++++++++++++++++++++++++++++++++",
"++++++++++++++++++++++++++++++++",
"++++++++++++++++++++++++++++++++",
"++++++++++++++++++++++++++++++++",
"++++++++++++++++++++++++++++++++",
"++++++++++++++++++++++++++++++++",
"++++++++++++++++++++++++++++++++",
"++++++++++++++++++++++++++++++++"};
