/* XPM */
static char * stick_prelight_xpm[] = {
"32 32 32 1",
" 	c None",
".	c #38404C",
"+	c #222B39",
"@	c #263B46",
"#	c #2F6063",
"$	c #357876",
"%	c #38847E",
"&	c #2F6062",
"*	c #263B45",
"=	c #232E3B",
"-	c #306263",
";	c #398781",
">	c #398882",
",	c #388781",
"'	c #2F6163",
")	c #222D3B",
"!	c #337070",
"~	c #33706F",
"{	c #306364",
"]	c #2F5F61",
"^	c #367976",
"/	c #3B8983",
"(	c #80B3AF",
"_	c #38847F",
":	c #81B3B0",
"<	c #FFFFFF",
"[	c #38837E",
"}	c #80B2AF",
"|	c #2F5E61",
"1	c #253A45",
"2	c #336F6F",
"3	c #336F6E",
"................................",
"++++++++++++++++++++++++++++++++",
"++++++++++++++++++++++++++++++++",
"++++++++++++++++++++++++++++++++",
"++++++++++++++++++++++++++++++++",
"++++++++++++++++++++++++++++++++",
"++++++++++++++++++++++++++++++++",
"++++++++++++++++++++++++++++++++",
"++++++++++++@#$%%$&*++++++++++++",
"++++++++++=-;>>>>>>,')++++++++++",
"+++++++++=!>>>>>>>>>>~)+++++++++",
"+++++++++{>>>>>>>>>>>>#+++++++++",
"++++++++@;>>>>>>>>>>>>,*++++++++",
"++++++++#>>>>>>>>>>>>>>]++++++++",
"++++++++^>>>>>/((/>>>>>$++++++++",
"++++++++_>>>>>:<<(>>>>>[++++++++",
"++++++++[>>>>>(<<}>>>>>[++++++++",
"++++++++^>>>>>/}}/>>>>>$++++++++",
"++++++++&>>>>>>>>>>>>>>|++++++++",
"++++++++*,>>>>>>>>>>>>,1++++++++",
"+++++++++'>>>>>>>>>>>>#+++++++++",
"+++++++++)2>>>>>>>>>>3)+++++++++",
"++++++++++)#,>>>>>>,#)++++++++++",
"++++++++++++*]$__$|1++++++++++++",
"++++++++++++++++++++++++++++++++",
"++++++++++++++++++++++++++++++++",
"++++++++++++++++++++++++++++++++",
"++++++++++++++++++++++++++++++++",
"++++++++++++++++++++++++++++++++",
"++++++++++++++++++++++++++++++++",
"++++++++++++++++++++++++++++++++",
"++++++++++++++++++++++++++++++++"};
