/* XPM */
static char * stick_toggled_prelight_xpm[] = {
"32 32 37 1",
" 	c None",
".	c #38404C",
"+	c #222B39",
"@	c #263B46",
"#	c #2F6063",
"$	c #357876",
"%	c #38847E",
"&	c #2F6062",
"*	c #263B45",
"=	c #232E3B",
"-	c #306263",
";	c #398781",
">	c #398882",
",	c #388781",
"'	c #2F6163",
")	c #222D3B",
"!	c #337070",
"~	c #33706F",
"{	c #306364",
"]	c #458F8A",
"^	c #88B8B4",
"/	c #2F5F61",
"(	c #367976",
"_	c #E6F0EF",
":	c #FFFFFF",
"<	c #E5F0EF",
"[	c #38847F",
"}	c #8AB9B5",
"|	c #38837E",
"1	c #89B8B4",
"2	c #87B7B4",
"3	c #E5EFEE",
"4	c #458F89",
"5	c #2F5E61",
"6	c #253A45",
"7	c #336F6F",
"8	c #336F6E",
"................................",
"++++++++++++++++++++++++++++++++",
"++++++++++++++++++++++++++++++++",
"++++++++++++++++++++++++++++++++",
"++++++++++++++++++++++++++++++++",
"++++++++++++++++++++++++++++++++",
"++++++++++++++++++++++++++++++++",
"++++++++++++++++++++++++++++++++",
"++++++++++++@#$%%$&*++++++++++++",
"++++++++++=-;>>>>>>,')++++++++++",
"+++++++++=!>>>>>>>>>>~)+++++++++",
"+++++++++{>>>>>>>>>>>>#+++++++++",
"++++++++@;>>>>>>>>>>>>,*++++++++",
"++++++++#>>>>>]^^]>>>>>/++++++++",
"++++++++(>>>>]_::<]>>>>$++++++++",
"++++++++[>>>>}::::^>>>>|++++++++",
"++++++++|>>>>1::::2>>>>|++++++++",
"++++++++(>>>>]<::34>>>>$++++++++",
"++++++++&>>>>>]224>>>>>5++++++++",
"++++++++*,>>>>>>>>>>>>,6++++++++",
"+++++++++'>>>>>>>>>>>>#+++++++++",
"+++++++++)7>>>>>>>>>>8)+++++++++",
"++++++++++)#,>>>>>>,#)++++++++++",
"++++++++++++*/$[[$56++++++++++++",
"++++++++++++++++++++++++++++++++",
"++++++++++++++++++++++++++++++++",
"++++++++++++++++++++++++++++++++",
"++++++++++++++++++++++++++++++++",
"++++++++++++++++++++++++++++++++",
"++++++++++++++++++++++++++++++++",
"++++++++++++++++++++++++++++++++",
"++++++++++++++++++++++++++++++++"};
