/* XPM */
static char * close_inactive_xpm[] = {
"24 24 16 1",
" 	c None",
".	c #D9D9D9",
"+	c #D4D4D4",
"@	c #C7C7C7",
"#	c #C5C5C5",
"$	c #C6C6C6",
"%	c #CACACA",
"&	c #CCCCCC",
"*	c #D0D0D0",
"=	c #D2D2D2",
"-	c #CBCBCB",
";	c #CFCFCF",
">	c #D1D1D1",
",	c #D5D5D5",
"'	c #CECECE",
")	c #D7D7D7",
"........................",
"........................",
"........................",
"........................",
"........................",
"........+@#$$#@+........",
".......%@&*==*&@-.......",
"......%@*======;@-......",
".....+@*========;$+.....",
".....@&==========&$.....",
".....#*==========*#.....",
".....$>==========>$.....",
".....$>==========>$.....",
".....#*==========*#.....",
".....@&==========&@.....",
".....+@;========;@,.....",
"......-@;======;@-......",
".......'$&*>>;&$-.......",
"........+$#$$#@)........",
"........................",
"........................",
"........................",
"........................",
"........................"};
