/* XPM */
static char * close_prelight_xpm[] = {
"24 24 44 1",
" 	c None",
".	c #D9D9D9",
"+	c #D4C9C3",
"@	c #CD8571",
"#	c #D55D4D",
"$	c #DE4B41",
"%	c #D55E4D",
"&	c #CE8671",
"*	c #D3C9C3",
"=	c #CDA190",
"-	c #DF4D42",
";	c #EE514A",
">	c #F95A52",
",	c #FE5E56",
"'	c #EE5149",
")	c #CEA191",
"!	c #E34941",
"~	c #F95A53",
"{	c #FF5F57",
"]	c #DE4D42",
"^	c #D5CAC4",
"/	c #CD8672",
"(	c #E6504D",
"_	c #C0373C",
":	c #E7514D",
"<	c #EE5049",
"[	c #CD8772",
"}	c #D65C4D",
"|	c #9F1F2C",
"1	c #9F1D2B",
"2	c #F85952",
"3	c #DD4B41",
"4	c #C0383C",
"5	c #C1373C",
"6	c #DD4C42",
"7	c #C1383C",
"8	c #FD5E55",
"9	c #9F1F2B",
"0	c #E8514D",
"a	c #DD4D43",
"b	c #D5CAC5",
"c	c #CDA392",
"d	c #DE4C44",
"e	c #F85A52",
"........................",
"........................",
"........................",
"........................",
"........................",
"........+@#$$%&*........",
".......=-;>,,>'-).......",
"......=!~{{{{{{~!)......",
".....+-~{{{{{{{{~]^.....",
"...../;{{{(__:{{{<[.....",
".....}>{{(|11|:{{2%.....",
".....3,{{411115{{,6.....",
".....6,{{_11117{{86.....",
".....#>{{:|1190{{2%.....",
".....&'{{{:550{{{<[.....",
".....+-~{{{{{{{{~ab.....",
"......)!~{{{{{{~!c......",
".......)d<2,,e<ac.......",
"........^[%33%[b........",
"........................",
"........................",
"........................",
"........................",
"........................"};
