/* XPM */
static char * close_active_xpm[] = {
"24 24 38 1",
" 	c None",
".	c #D9D9D9",
"+	c #D4C9C3",
"@	c #CD8573",
"#	c #D55C4D",
"$	c #DE4A41",
"%	c #D55E4E",
"&	c #CE8572",
"*	c #D3C9C3",
"=	c #CDA091",
"-	c #DF4C42",
";	c #EE514A",
">	c #F95A52",
",	c #FE5E56",
"'	c #EE5149",
")	c #CDA191",
"!	c #E34941",
"~	c #F95A53",
"{	c #FF5F57",
"]	c #CEA192",
"^	c #DE4D42",
"/	c #D5CAC4",
"(	c #EE5049",
"_	c #CD8672",
":	c #D65C4D",
"<	c #F85952",
"[	c #DD4B41",
"}	c #DD4B42",
"|	c #FD5E55",
"1	c #DD4C42",
"2	c #DE4C43",
"3	c #D5CAC5",
"4	c #CDA292",
"5	c #DE4C44",
"6	c #F85A52",
"7	c #DD4C43",
"8	c #CD8673",
"9	c #D55D4E",
"........................",
"........................",
"........................",
"........................",
"........................",
"........+@#$$%&*........",
".......=-;>,,>'-).......",
"......=!~{{{{{{~!]......",
".....+-~{{{{{{{{~^/.....",
".....@;{{{{{{{{{{(_.....",
".....:>{{{{{{{{{{<%.....",
".....[,{{{{{{{{{{,}.....",
".....},{{{{{{{{{{|1.....",
".....#>{{{{{{{{{{<%.....",
".....&'{{{{{{{{{{(@.....",
".....+-~{{{{{{{{~23.....",
"......)!~{{{{{{~!4......",
".......)5(<,,6(74.......",
"......../89}[983........",
"........................",
"........................",
"........................",
"........................",
"........................"};
