/* XPM */
static char * close_pressed_xpm[] = {
"24 24 54 1",
" 	c None",
".	c #D9D9D9",
"+	c #DABEBD",
"@	c #DD8581",
"#	c #DF5E58",
"$	c #E04C45",
"%	c #DD8682",
"&	c #DABFBE",
"*	c #D9D5D5",
"=	c #DD827E",
"-	c #E34944",
";	c #F1534B",
">	c #F95A53",
",	c #FE5E56",
"'	c #F95A52",
")	c #F0534C",
"!	c #E34943",
"~	c #DE8480",
"{	c #D8D5D4",
"]	c #DE6B66",
"^	c #EB4F47",
"/	c #FD5E56",
"(	c #FF5F57",
"_	c #EB4E47",
":	c #DE6C66",
"<	c #DD817D",
"[	c #DE837F",
"}	c #FD5E55",
"|	c #E34942",
"1	c #DAC0BF",
"2	c #E6504D",
"3	c #C0373C",
"4	c #E7514D",
"5	c #F0524B",
"6	c #DC8783",
"7	c #DF5D58",
"8	c #9F1F2C",
"9	c #9F1D2B",
"0	c #DF5F59",
"a	c #E04C46",
"b	c #C0383C",
"c	c #C1373C",
"d	c #E04D46",
"e	c #C1383C",
"f	c #E04E47",
"g	c #9F1F2B",
"h	c #E8514D",
"i	c #F0534B",
"j	c #DC8883",
"k	c #FD5D56",
"l	c #DAC1BF",
"m	c #DE6D66",
"n	c #DE6D68",
"o	c #D8D5D5",
"........................",
"........................",
"........................",
"........................",
"........+@#$$#%&........",
"......*=-;>,,')!~{......",
".....*]^/((((((/_:{.....",
".....<^((((((((((_[.....",
"....+-/((((((((((}|1....",
"....@;((((2334((((56....",
"....7>(((289984((('0....",
"....a,(((b9999c(((/d....",
"....d/(((39999e(((}f....",
"....7>(((4899gh((('0....",
"....%)((((4cch((((ij....",
"....&!/((((((((((k|l....",
".....~_((((((((((_@.....",
".....{m_}((((((k_no.....",
"......{[|5',,'i|@o......",
"........160aa0jl........",
"........................",
"........................",
"........................",
"........................"};
