/* XPM */
static char * hide_active_xpm[] = {
"24 24 34 1",
" 	c None",
".	c #D9D9D9",
"+	c #D9D4C9",
"@	c #DBBB7A",
"#	c #DDAA44",
"$	c #DEA229",
"%	c #DDAA45",
"&	c #DCBB7B",
"*	c #DAC59C",
"=	c #DFA32C",
"-	c #EDAD28",
";	c #F7B72C",
">	c #FDBC2E",
",	c #DAC69D",
"'	c #E1A324",
")	c #F8B72C",
"!	c #FEBD2E",
"~	c #DFA42C",
"{	c #D9D4CA",
"]	c #EDAC27",
"^	c #DCBC7C",
"/	c #DDAB45",
"(	c #F7B72B",
"_	c #F7B62C",
":	c #DFA22B",
"<	c #FCBC2E",
"[	c #DEA22C",
"}	c #FCBC2D",
"|	c #DEA32C",
"1	c #DCBC7D",
"2	c #DFA32D",
"3	c #D9D5CA",
"4	c #DBC69E",
"5	c #DDAB46",
"........................",
"........................",
"........................",
"........................",
"........................",
"........+@#$$%&+........",
".......*=-;>>;-=,.......",
"......*')!!!!!!)',......",
".....+=)!!!!!!!!)~{.....",
".....@-!!!!!!!!!!]^.....",
"...../(!!!!!!!!!!_%.....",
".....:<!!!!!!!!!!<[.....",
".....[<!!!!!!!!!!}|.....",
".....#(!!!!!!!!!!_%.....",
".....&-!!!!!!!!!!]1.....",
".....+=)!!!!!!!!)23.....",
"......,')!!!!!!)'4......",
".......,=]_<<;]24.......",
"........{^5::513........",
"........................",
"........................",
"........................",
"........................",
"........................"};
