/* XPM */
static char * hide_pressed_xpm[] = {
"24 24 52 1",
" 	c None",
".	c #D9D9D9",
"+	c #D9CEB8",
"@	c #DCB871",
"#	c #DDA941",
"$	c #DEA229",
"%	c #DCB872",
"&	c #D9CFB9",
"*	c #D9D7D4",
"=	c #DCB76E",
"-	c #E1A225",
";	c #EFAF29",
">	c #F8B72C",
",	c #FDBC2E",
"'	c #F8B82C",
")	c #EEAF29",
"!	c #DBB76E",
"~	c #D8D7D4",
"{	c #DDAE51",
"]	c #EAAA26",
"^	c #FCBB2E",
"/	c #FEBD2E",
"(	c #EAA926",
"_	c #DDAF52",
":	c #DCB76D",
"<	c #DDB870",
"[	c #FCBC2D",
"}	c #E1A325",
"|	c #DACFBA",
"1	c #E5A729",
"2	c #C2841F",
"3	c #E7A829",
"4	c #EEAE28",
"5	c #DCB973",
"6	c #DEA940",
"7	c #A16215",
"8	c #A16115",
"9	c #DEA942",
"0	c #DFA22B",
"a	c #FCBC2E",
"b	c #C1841F",
"c	c #DEA22C",
"d	c #DEA32C",
"e	c #A16316",
"f	c #EEAF28",
"g	c #DBB873",
"h	c #FCBB2D",
"i	c #DACFBB",
"j	c #E9AA27",
"k	c #DCAE52",
"l	c #DEAF53",
"m	c #D8D7D5",
"........................",
"........................",
"........................",
"........................",
"........+@#$$#%&........",
"......*=-;>,,')-!~......",
".....*{]^//////^(_~.....",
".....:]//////////(<.....",
"....+-^//////////[}|....",
"....@;////1223////45....",
"....6>///178873///'9....",
"....0a///b88882///^c....",
"....c^///288882///[d....",
"....6>///3788e3///'9....",
"....%)////3223////fg....",
"....&-^//////////h}i....",
".....!(//////////j@.....",
".....~k([//////hjlm.....",
"......~<}4>aa>f}@m......",
"........|59009gi........",
"........................",
"........................",
"........................",
"........................"};
