/* XPM */
static char * hide_prelight_xpm[] = {
"24 24 41 1",
" 	c None",
".	c #D9D9D9",
"+	c #D9D4C9",
"@	c #DEBE7D",
"#	c #DDAA44",
"$	c #DEA229",
"%	c #DDAA45",
"&	c #DFBE7E",
"*	c #DEC9A0",
"=	c #DFA32C",
"-	c #EDAD28",
";	c #F7B72C",
">	c #FDBC2E",
",	c #DECAA1",
"'	c #E1A324",
")	c #F8B72C",
"!	c #FEBD2E",
"~	c #D9D4CA",
"{	c #E5A729",
"]	c #C2841F",
"^	c #E7A829",
"/	c #EDAC27",
"(	c #DFBF7F",
"_	c #F7B72B",
":	c #A16215",
"<	c #A16115",
"[	c #F7B62C",
"}	c #DFA22B",
"|	c #FCBC2E",
"1	c #C1841F",
"2	c #DEA22B",
"3	c #FCBC2D",
"4	c #DEA22C",
"5	c #A16316",
"6	c #DFBF80",
"7	c #DFA32D",
"8	c #D9D5CA",
"9	c #DFCAA2",
"0	c #DFA22C",
"a	c #DDAA46",
"b	c #DDAB46",
"........................",
"........................",
"........................",
"........................",
"........................",
"........+@#$$%&+........",
".......*=-;>>;-=,.......",
"......*')!!!!!!)',......",
".....+=)!!!!!!!!)=~.....",
".....@-!!!{]]^!!!/(.....",
".....#_!!{:<<:^!![%.....",
".....}|!!1<<<<]!!|2.....",
".....2|!!]<<<<]!!34.....",
".....#_!!^:<<5^!![%.....",
".....&-!!!^]]^!!!/6.....",
".....+=)!!!!!!!!)78.....",
"......,')!!!!!!)'9......",
".......,0/[||;/79.......",
"........~(a}}b68........",
"........................",
"........................",
"........................",
"........................",
"........................"};
