/* XPM */
static char * maximize_pressed_xpm[] = {
"24 24 53 1",
" 	c None",
".	c #D9D9D9",
"+	c #BAD0BA",
"@	c #78BE76",
"#	c #4CB24A",
"$	c #37AC33",
"%	c #79BF77",
"&	c #BBD1BB",
"*	c #D4D8D4",
"=	c #75BE73",
"-	c #30AD2F",
";	c #2CBA36",
">	c #29C33C",
",	c #28C73F",
"'	c #76BE75",
")	c #D4D7D4",
"!	c #5BB558",
"~	c #2DB532",
"{	c #28C83F",
"]	c #28C940",
"^	c #2DB533",
"/	c #5CB659",
"(	c #74BD72",
"_	c #78BF74",
":	c #29C73E",
"<	c #30AE2E",
"[	c #BCD1BB",
"}	c #22B334",
"|	c #16931F",
"1	c #22B434",
"2	c #2CBA37",
"3	c #7ABF78",
"4	c #4BB248",
"5	c #2AC43C",
"6	c #0C7409",
"7	c #0B7407",
"8	c #4DB249",
"9	c #37AD34",
"0	c #16921E",
"a	c #38AD34",
"b	c #17931F",
"c	c #39AD35",
"d	c #0C7509",
"e	c #22B534",
"f	c #7CC078",
"g	c #29C73F",
"h	c #30AE2F",
"i	c #BDD1BC",
"j	c #2EB533",
"k	c #5BB758",
"l	c #5DB65A",
"m	c #D5D7D5",
"n	c #29C43C",
"........................",
"........................",
"........................",
"........................",
"........+@#$$#%&........",
"......*=-;>,,>;-')......",
".....*!~{]]]]]]{^/).....",
".....(~]]]]]]]]]]^_.....",
"....+-{]]]]]]]]]]:<[....",
"....@;]]]]}||1]]]]23....",
"....45]]]}67761]]]>8....",
"....9{]]]07777|]]]{a....",
"....a{]]]|7777b]]]:c....",
"....4>]]]1677de]]]>8....",
"....%;]]]]1||e]]]];f....",
"....&-{]]]]]]]]]]ghi....",
".....'^]]]]]]]]]]j@.....",
".....)k^:]]]]]]gjlm.....",
"......)_<2n{{n;h@m......",
"........[38998fi........",
"........................",
"........................",
"........................",
"........................"};
