/* XPM */
static char * maximize_prelight_xpm[] = {
"24 24 48 1",
" 	c None",
".	c #D9D9D9",
"+	c #CED9CE",
"@	c #85C683",
"#	c #4FB34C",
"$	c #37AC33",
"%	c #50B34E",
"&	c #87C585",
"*	c #A8D1A7",
"=	c #38AF35",
"-	c #2CB835",
";	c #29C33B",
">	c #28C73F",
",	c #2CB834",
"'	c #A9D0A7",
")	c #2FAE2E",
"!	c #2AC43C",
"~	c #28C940",
"{	c #29C33C",
"]	c #39B036",
"^	c #CFD9CF",
"/	c #22B334",
"(	c #16931F",
"_	c #22B434",
":	c #2DB834",
"<	c #86C584",
"[	c #4FB24B",
"}	c #2AC23B",
"|	c #0C7409",
"1	c #0B7407",
"2	c #2AC33C",
"3	c #28C83F",
"4	c #16921E",
"5	c #38AD34",
"6	c #17931F",
"7	c #29C73E",
"8	c #38AD35",
"9	c #0C7509",
"0	c #22B534",
"a	c #87C685",
"b	c #39AE36",
"c	c #D0D9CF",
"d	c #A7CFA5",
"e	c #A8D0A7",
"f	c #2AC23C",
"g	c #A9D1A8",
"h	c #51B34D",
"i	c #37AD34",
"........................",
"........................",
"........................",
"........................",
"........................",
"........+@#$$%&+........",
".......*=-;>>;,='.......",
"......*)!~~~~~~{)'......",
".....+=!~~~~~~~~{]^.....",
".....@-~~~/((_~~~:<.....",
".....[}~~/|11|_~~2%.....",
".....$3~~41111(~~35.....",
".....53~~(11116~~78.....",
".....#}~~_|1190~~2%.....",
".....&,~~~_((0~~~:a.....",
".....+={~~~~~~~~{bc.....",
"......d){~~~~~~{)e......",
".......'b:233f:bg.......",
"........^<hi$hac........",
"........................",
"........................",
"........................",
"........................",
"........................"};
