/* XPM */
static char * maximize_active_xpm[] = {
"24 24 37 1",
" 	c None",
".	c #D9D9D9",
"+	c #CAD5CA",
"@	c #81C17F",
"#	c #4FB34C",
"$	c #37AC33",
"%	c #50B34E",
"&	c #82C180",
"*	c #A0C99F",
"=	c #38AF35",
"-	c #2CB835",
";	c #29C33B",
">	c #28C73F",
",	c #2CB834",
"'	c #A1C99F",
")	c #2FAE2E",
"!	c #2AC43C",
"~	c #28C940",
"{	c #29C33C",
"]	c #39B036",
"^	c #CBD5CB",
"/	c #2DB834",
"(	c #4FB24B",
"_	c #2AC23B",
":	c #2AC33C",
"<	c #37AD34",
"[	c #28C83F",
"}	c #38AD34",
"|	c #29C73E",
"1	c #39AD35",
"2	c #83C280",
"3	c #39AE37",
"4	c #CBD5CA",
"5	c #A2CAA1",
"6	c #39AE36",
"7	c #2AC23C",
"8	c #51B34D",
"........................",
"........................",
"........................",
"........................",
"........................",
"........+@#$$%&+........",
".......*=-;>>;,='.......",
"......*)!~~~~~~{)'......",
".....+=!~~~~~~~~{]^.....",
".....@-~~~~~~~~~~/&.....",
".....(_~~~~~~~~~~:%.....",
".....<[~~~~~~~~~~[}.....",
".....}[~~~~~~~~~~|1.....",
".....#_~~~~~~~~~~:%.....",
".....&,~~~~~~~~~~/2.....",
".....+={~~~~~~~~{34.....",
"......'){~~~~~~{)5......",
".......'6/:[[7/35.......",
"........^&8<<824........",
"........................",
"........................",
"........................",
"........................",
"........................"};
