/* XPM */
static char * maximize_inactive_xpm[] = {
"24 24 14 1",
" 	c None",
".	c #D9D9D9",
"+	c #D7D7D7",
"@	c #CFCFCF",
"#	c #CBCBCB",
"$	c #C7C7C7",
"%	c #CACACA",
"&	c #D2D2D2",
"*	c #C8C8C8",
"=	c #CCCCCC",
"-	c #D0D0D0",
";	c #D3D3D3",
">	c #D1D1D1",
",	c #C9C9C9",
"........................",
"........................",
"........................",
"........................",
"........................",
"........+@#$$%@+........",
".......&*=-&&-=*;.......",
"......&*-&&&&&&@*;......",
".....+*-&&&&&&&&@*+.....",
".....@=&&&&&&&&&&=@.....",
".....%-&&&&&&&&&&-%.....",
".....$>&&&&&&&&&&>$.....",
".....$>&&&&&&&&&&>$.....",
".....#-&&&&&&&&&&-%.....",
".....@=&&&&&&&&&&=-.....",
".....+*@&&&&&&&&@,+.....",
"......;*@&&&&&&@*;......",
".......;*=->>@=,;.......",
"........+@%$$%-+........",
"........................",
"........................",
"........................",
"........................",
"........................"};
