/* XPM */
static char * shade_toggled_inactive_xpm[] = {
"24 24 6 1",
" 	c None",
".	c #D9D9D9",
"+	c #C6C6C6",
"@	c #B7B7B7",
"#	c #B6B6B6",
"$	c #C7C7C7",
"........................",
"........................",
"........................",
"........................",
"........................",
"........................",
"........................",
"........................",
"........+@####@$........",
"........@#####.@........",
"........########........",
"........##....##........",
"........##....##........",
"........##....##........",
"........########........",
"........########........",
"........................",
"........................",
"........................",
"........................",
"........................",
"........................",
"........................",
"........................"};
