/* XPM */
static char * shade_active_xpm[] = {
"24 24 7 1",
" 	c None",
".	c #D9D9D9",
"+	c #B2B2B2",
"@	c #929292",
"#	c #404040",
"$	c #B3B3B3",
"%	c #B4B4B4",
"........................",
"........................",
"........................",
"........................",
"........................",
"........................",
"........................",
"........................",
"........+@####@$........",
"........@#####.@........",
"........########........",
"...........%+...........",
"..........%##+..........",
".........%####+.........",
"...........##...........",
"...........##...........",
"........................",
"........................",
"........................",
"........................",
"........................",
"........................",
"........................",
"........................"};
