/* XPM */
static char * top_right_active_xpm[] = {
"2 28 5 1",
" 	c None",
".	c #EEEEEE",
"+	c #DFDFE0",
"@	c #D9D9D9",
"#	c #BFBFBF",
". ",
"+.",
"@#",
"@#",
"@#",
"@#",
"@#",
"@#",
"@#",
"@#",
"@#",
"@#",
"@#",
"@#",
"@#",
"@#",
"@#",
"@#",
"@#",
"@#",
"@#",
"@#",
"@#",
"@#",
"@#",
"@#",
"@#",
"@#"};
