/* XPM */
static char * top_left_active_xpm[] = {
"2 28 5 1",
" 	c None",
".	c #ECEDF0",
"+	c #DFDFE0",
"@	c #BFBFBF",
"#	c #D9D9D9",
" .",
".+",
"@#",
"@#",
"@#",
"@#",
"@#",
"@#",
"@#",
"@#",
"@#",
"@#",
"@#",
"@#",
"@#",
"@#",
"@#",
"@#",
"@#",
"@#",
"@#",
"@#",
"@#",
"@#",
"@#",
"@#",
"@#",
"@#"};
