/* XPM */
static char * close_active_xpm[] = {
"24 24 33 1",
" 	c None",
".	c #2F2F2F",
"+	c #2E2E2E",
"@	c #463B36",
"#	c #A55D4B",
"$	c #CF5647",
"%	c #DD4A41",
"&	c #CF5747",
"*	c #A55D4A",
"=	c #825445",
"-	c #DE4C41",
";	c #EE514A",
">	c #F95A52",
",	c #FE5E56",
"'	c #EE5149",
")	c #815546",
"!	c #E34941",
"~	c #F95A53",
"{	c #FF5F57",
"]	c #DD4C42",
"^	c #EE5049",
"/	c #D15647",
"(	c #F85952",
"_	c #DD4B41",
":	c #FD5E55",
"<	c #DC4B42",
"[	c #A35C4A",
"}	c #DD4C43",
"|	c #443935",
"1	c #7F5444",
"2	c #DD4B44",
"3	c #F85A52",
"4	c #CE5748",
"........................",
"+.......................",
"........................",
"........................",
"........................",
"........@#$%%&*@........",
".......=-;>,,>'-).......",
"......=!~{{{{{{~!)......",
".....@-~{{{{{{{{~]@.....",
".....#;{{{{{{{{{{^*.....",
"...../>{{{{{{{{{{(&.....",
"....._,{{{{{{{{{{,_.....",
"....._,{{{{{{{{{{:<.....",
".....$>{{{{{{{{{{(&.....",
".....*'{{{{{{{{{{^[.....",
".....@-~{{{{{{{{~}|.....",
"......)!~{{{{{{~!1......",
".......)2^(,,3^}1.......",
"........@*4__4[|........",
"........................",
"........................",
"........................",
"........................",
"........................"};
