/* XPM */
static char * close_prelight_xpm[] = {
"24 24 44 1",
" 	c None",
".	c #2F2F2F",
"+	c #473C38",
"@	c #AA6151",
"#	c #D3594B",
"$	c #DE4B42",
"%	c #D25A4B",
"&	c #AB6150",
"*	c #87594B",
"=	c #DF4D43",
"-	c #EE514A",
";	c #F95A52",
">	c #FE5E56",
",	c #EE5149",
"'	c #86584B",
")	c #E34941",
"!	c #F95A53",
"~	c #FF5F57",
"{	c #DE4D43",
"]	c #483D38",
"^	c #E6504D",
"/	c #C0373C",
"(	c #E7514D",
"_	c #EE5049",
":	c #AA6150",
"<	c #D4594B",
"[	c #9F1F2C",
"}	c #9F1D2B",
"|	c #F85952",
"1	c #C0383C",
"2	c #C1373C",
"3	c #DE4C43",
"4	c #C1383C",
"5	c #FD5E55",
"6	c #DD4C43",
"7	c #9F1F2B",
"8	c #E8514D",
"9	c #A96050",
"0	c #DE4D44",
"a	c #463B37",
"b	c #83584A",
"c	c #DE4C45",
"d	c #F85A52",
"e	c #D2594B",
"........................",
"........................",
"........................",
"........................",
"........................",
"........+@#$$%&+........",
".......*=-;>>;,='.......",
"......*)!~~~~~~!)'......",
".....+=!~~~~~~~~!{].....",
".....@-~~~^//(~~~_:.....",
".....<;~~^[}}[(~~|%.....",
".....$>~~1}}}}2~~>3.....",
".....3>~~/}}}}4~~56.....",
".....#;~~([}}78~~|%.....",
".....&,~~~(228~~~_9.....",
".....+=!~~~~~~~~!0a.....",
"......')!~~~~~~!)b......",
".......'c_|>>d_0b.......",
"........]:e$$e9a........",
"........................",
"........................",
"........................",
"........................",
"........................"};
