/* XPM */
static char * close_inactive_xpm[] = {
"24 24 21 1",
" 	c None",
".	c #2F2F2F",
"+	c #404040",
"@	c #8B8B8B",
"#	c #B3B3B3",
"$	c #C2C2C2",
"%	c #B2B2B2",
"&	c #8A8A8A",
"*	c #6D6D6D",
"=	c #CCCCCC",
"-	c #D0D0D0",
";	c #D2D2D2",
">	c #6E6E6E",
",	c #C7C7C7",
"'	c #CFCFCF",
")	c #3F3F3F",
"!	c #898989",
"~	c #D1D1D1",
"{	c #C1C1C1",
"]	c #6C6C6C",
"^	c #B1B1B1",
"........................",
"........................",
"........................",
"........................",
"........................",
"........+@#$$%&+........",
".......*$=-;;-=$>.......",
"......*,-;;;;;;',>......",
".....+$-;;;;;;;;'$).....",
".....@=;;;;;;;;;;=!.....",
".....#-;;;;;;;;;;-%.....",
".....$~;;;;;;;;;;~{.....",
".....{~;;;;;;;;;;~{.....",
".....#-;;;;;;;;;;-%.....",
".....&=;;;;;;;;;;=&.....",
".....+$';;;;;;;;'$).....",
"......>,';;;;;;',]......",
".......>$=-~~'=$].......",
"........)!^$$^&)........",
"........................",
"........................",
"........................",
"........................",
"........................"};
