/* XPM */
static char * close_pressed_xpm[] = {
"24 24 51 1",
" 	c None",
".	c #2F2F2F",
"+	c #4E3231",
"@	c #943C38",
"#	c #C2423C",
"$	c #D9453E",
"%	c #933C38",
"&	c #4D3231",
"*	c #332F2F",
"=	c #973C38",
"-	c #E24742",
";	c #F1534B",
">	c #F95A53",
",	c #FE5E56",
"'	c #F95A52",
")	c #F0534C",
"!	c #E14741",
"~	c #963C38",
"{	c #322F2E",
"]	c #B3403A",
"^	c #EB4F47",
"/	c #FD5E56",
"(	c #FF5F57",
"_	c #EB4E47",
":	c #B2403A",
"<	c #983C37",
"[	c #963B37",
"}	c #FD5E55",
"|	c #E14740",
"1	c #4D3332",
"2	c #E6504D",
"3	c #C0373C",
"4	c #E7514D",
"5	c #F0524B",
"6	c #913B37",
"7	c #C3413C",
"8	c #9F1F2C",
"9	c #9F1D2B",
"0	c #D8443E",
"a	c #C0383C",
"b	c #C1373C",
"c	c #D7443E",
"d	c #C1383C",
"e	c #9F1F2B",
"f	c #E8514D",
"g	c #F0534B",
"h	c #903C37",
"i	c #FD5D56",
"j	c #4C3331",
"k	c #B13F3A",
"l	c #322F2F",
"........................",
"........................",
"........................",
"........................",
"........+@#$$#%&........",
"......*=-;>,,')!~{......",
".....*]^/((((((/_:{.....",
".....<^((((((((((_[.....",
"....+-/((((((((((}|1....",
"....@;((((2334((((56....",
"....7>(((289984((('#....",
"....0,(((a9999b(((/c....",
"....c/(((39999d(((}c....",
"....7>(((4899ef((('#....",
"....%)((((4bbf((((gh....",
"....&!/((((((((((i|j....",
".....~_((((((((((_@.....",
".....{:_}((((((i_kl.....",
"......{[|5',,'g|@l......",
"........16#00#hj........",
"........................",
"........................",
"........................",
"........................"};
