/* XPM */
static char * hide_prelight_xpm[] = {
"24 24 44 1",
" 	c None",
".	c #2F2F2F",
"+	c #3D382D",
"@	c #8B6A2A",
"#	c #BD8A24",
"$	c #D79A22",
"%	c #BD8A25",
"&	c #6B562D",
"*	c #D69A23",
"=	c #EDAD28",
"-	c #F7B72C",
";	c #FDBC2E",
">	c #6A562D",
",	c #E1A224",
"'	c #F8B72C",
")	c #FEBD2E",
"!	c #403B30",
"~	c #3F3A30",
"{	c #E5A729",
"]	c #C2841F",
"^	c #E7A829",
"/	c #EDAC27",
"(	c #8A6A2A",
"_	c #BD8B25",
":	c #F7B72B",
"<	c #A16215",
"[	c #A16115",
"}	c #F7B62C",
"|	c #BC8924",
"1	c #D79A23",
"2	c #FCBC2E",
"3	c #C1841F",
"4	c #D59923",
"5	c #FCBC2D",
"6	c #D49923",
"7	c #BC8923",
"8	c #A16316",
"9	c #89692A",
"0	c #3C382E",
"a	c #69552C",
"b	c #323232",
"c	c #3D382E",
"d	c #BC8925",
"e	c #886829",
"........................",
"........................",
"........................",
"........................",
"........................",
"........+@#$$%@+........",
".......&*=-;;-=*>.......",
"......&,'))))))',>......",
".....!*'))))))))'*~.....",
".....@=))){]]^)))/(.....",
"....._:)){<[[<^))}|.....",
".....12))3[[[[]))24.....",
".....42))][[[[]))56.....",
".....7:))^<[[8^))}%.....",
".....@=)))^]]^)))/9.....",
".....!*'))))))))'40.....",
"......>,'))))))',a......",
".......>4/}22-/4ab......",
"........c(d11de0........",
"........................",
"........................",
"........................",
"........................",
"........................"};
