/* XPM */
static char * hide_active_xpm[] = {
"24 24 31 1",
" 	c None",
".	c #2F2F2F",
"+	c #3D382D",
"@	c #896928",
"#	c #BD8A24",
"$	c #D79B22",
"%	c #BD8A25",
"&	c #69542B",
"*	c #D69B23",
"=	c #EDAD28",
"-	c #F7B72C",
";	c #FDBC2E",
">	c #68542B",
",	c #E1A224",
"'	c #F8B72C",
")	c #FEBD2E",
"!	c #D69A23",
"~	c #3D382E",
"{	c #EDAC27",
"]	c #BE8B26",
"^	c #F7B72B",
"/	c #F7B62C",
"(	c #D79A23",
"_	c #FCBC2E",
":	c #FCBC2D",
"<	c #D59923",
"[	c #886829",
"}	c #3C382E",
"|	c #67532A",
"1	c #D69923",
"2	c #BC8925",
"........................",
"........................",
"........................",
"........................",
"........................",
"........+@#$$%@+........",
".......&*=-;;-=*>.......",
"......&,'))))))',>......",
".....+*'))))))))'!~.....",
".....@=)))))))))){@.....",
".....]^))))))))))/%.....",
".....(_))))))))))_!.....",
".....!_)))))))))):<.....",
".....#^))))))))))/%.....",
".....@=)))))))))){[.....",
".....+*'))))))))'<}.....",
"......>,'))))))',|......",
".......>1{/__-{<|.......",
"........~@2((2[}........",
"........................",
"........................",
"........................",
"........................",
"........................"};
