/* XPM */
static char * hide_pressed_xpm[] = {
"24 24 55 1",
" 	c None",
".	c #2F2F2F",
"+	c #4D422C",
"@	c #947029",
"#	c #C18C25",
"$	c #D79B22",
"%	c #926E28",
"&	c #4C422C",
"*	c #33312E",
"=	c #967128",
"-	c #E0A124",
";	c #EFAF29",
">	c #F8B72C",
",	c #FDBC2E",
"'	c #F8B82C",
")	c #EEAF29",
"!	c #DFA024",
"~	c #947027",
"{	c #32312E",
"]	c #B28326",
"^	c #EAAA26",
"/	c #FCBB2E",
"(	c #FEBD2E",
"_	c #EAA926",
":	c #B18326",
"<	c #977127",
"[	c #957028",
"}	c #FCBC2D",
"|	c #DFA124",
"1	c #4D422D",
"2	c #936F28",
"3	c #E5A729",
"4	c #C2841F",
"5	c #E7A829",
"6	c #EEAE28",
"7	c #916D27",
"8	c #C28D24",
"9	c #A16215",
"0	c #A16115",
"a	c #D79A23",
"b	c #FCBC2E",
"c	c #C1841F",
"d	c #D69A23",
"e	c #D59923",
"f	c #A16316",
"g	c #EEAF28",
"h	c #8F6C27",
"i	c #FCBB2D",
"j	c #4C412D",
"k	c #E9AA27",
"l	c #B08226",
"m	c #B08126",
"n	c #32312F",
"o	c #C18D25",
"p	c #916E29",
"........................",
"........................",
"........................",
"........................",
"........+@#$$#%&........",
"......*=-;>,,')!~{......",
".....*]^/((((((/_:{.....",
".....<^((((((((((_[.....",
"....+-/((((((((((}|1....",
"....2;((((3445((((67....",
"....8>(((390095((('#....",
"....ab(((c00004(((/d....",
"....d/(((400004(((}e....",
"....8>(((5900f5((('#....",
"....%)((((5445((((gh....",
"....&!/((((((((((i|j....",
".....~_((((((((((k2.....",
".....{l_}((((((ikmn.....",
"......{[|6>bb>g|2n......",
"........17oaa#pj........",
"........................",
"........................",
"........................",
"........................"};
