/* XPM */
static char * maximize_inactive_xpm[] = {
"24 24 20 1",
" 	c None",
".	c #2F2F2F",
"+	c #3B3B3B",
"@	c #7D7D7D",
"#	c #ABABAB",
"$	c #C0C0C0",
"%	c #A9A9A9",
"&	c #616161",
"*	c #CCCCCC",
"=	c #D0D0D0",
"-	c #D2D2D2",
";	c #C7C7C7",
">	c #CFCFCF",
",	c #BFBFBF",
"'	c #7B7B7B",
")	c #AAAAAA",
"!	c #D1D1D1",
"~	c #BEBEBE",
"{	c #7C7C7C",
"]	c #5F5F5F",
"........................",
"........................",
"........................",
"........................",
"........................",
"........+@#$$%@+........",
".......&$*=--=*$&.......",
"......&;=------>;&......",
".....+$=-------->,+.....",
".....@*----------*'.....",
".....)=----------=%.....",
".....,!----------!,.....",
".....,!----------!~.....",
".....#=----------=%.....",
".....@*----------*{.....",
".....+$>-------->,+.....",
"......&;>------>;]......",
".......&,*=!!>*,].......",
"........+'%,,%{+........",
"........................",
"........................",
"........................",
"........................",
"........................"};
