/* XPM */
static char * maximize_prelight_xpm[] = {
"24 24 49 1",
" 	c None",
".	c #2F2F2F",
"+	c #2E392E",
"@	c #30712E",
"#	c #2F932C",
"$	c #2FA52B",
"%	c #2F932D",
"&	c #31702F",
"*	c #315A30",
"=	c #2FA62C",
"-	c #2CB835",
";	c #29C33B",
">	c #28C73F",
",	c #2CB834",
"'	c #31592F",
")	c #2EAD2D",
"!	c #2AC43C",
"~	c #28C940",
"{	c #29C33C",
"]	c #313C31",
"^	c #313B31",
"/	c #22B334",
"(	c #16931F",
"_	c #22B434",
":	c #2DB834",
"<	c #306F2E",
"[	c #2E922B",
"}	c #2AC23B",
"|	c #0C7409",
"1	c #0B7407",
"2	c #2AC33C",
"3	c #2E922C",
"4	c #2FA42B",
"5	c #28C83F",
"6	c #16921E",
"7	c #17931F",
"8	c #29C73E",
"9	c #2FA32B",
"0	c #323232",
"a	c #0C7509",
"b	c #22B534",
"c	c #2FA62D",
"d	c #2FA42C",
"e	c #2F382E",
"f	c #315830",
"g	c #2AC23C",
"h	c #2F392F",
"i	c #30912C",
"j	c #2F6E2C",
"........................",
"........................",
"........................",
"........................",
"........................",
"........+@#$$%&+........",
".......*=-;>>;,='.......",
"......*)!~~~~~~{)'......",
".....]=!~~~~~~~~{=^.....",
".....@-~~~/((_~~~:<.....",
".....[}~~/|11|_~~23.....",
".....45~~61111(~~54.....",
".....45~~(11117~~89.....",
"....0[}~~_|11ab~~2%.....",
".....&,~~~_((b~~~:<.....",
"....0]c{~~~~~~~~{de.....",
"......'){~~~~~~{)f......",
".......'d:255g:df0......",
"........h<i44ije........",
"........................",
"........................",
"........................",
"........................",
"........................"};
