/* XPM */
static char * maximize_pressed_xpm[] = {
"24 24 51 1",
" 	c None",
".	c #2F2F2F",
"+	c #2E442E",
"@	c #30762E",
"#	c #2F962D",
"$	c #2FA52C",
"%	c #2F752D",
"&	c #2E322E",
"*	c #2F782D",
"=	c #2FAC2E",
"-	c #2CBA36",
";	c #29C33C",
">	c #28C73F",
",	c #2FAB2E",
"'	c #2F762D",
")	c #2E312E",
"!	c #2F8A2C",
"~	c #2DB532",
"{	c #28C83F",
"]	c #28C940",
"^	c #2DB533",
"/	c #308A2D",
"(	c #30772C",
"_	c #29C73E",
":	c #2FAC2D",
"<	c #2F442E",
"[	c #22B334",
"}	c #16931F",
"|	c #22B434",
"1	c #2CBA37",
"2	c #2F742C",
"3	c #2F962C",
"4	c #2AC43C",
"5	c #0C7409",
"6	c #0B7407",
"7	c #2F942C",
"8	c #16921E",
"9	c #2FA42C",
"0	c #17931F",
"a	c #30972C",
"b	c #0C7509",
"c	c #22B534",
"d	c #30742C",
"e	c #29C73F",
"f	c #2F432E",
"g	c #2EB533",
"h	c #2F892C",
"i	c #2F312F",
"j	c #29C43C",
"k	c #30952D",
"l	c #31752E",
"........................",
"........................",
"........................",
"........................",
"........+@#$$#%+........",
"......&*=-;>>;-,')......",
".....&!~{]]]]]]{^/).....",
".....*~]]]]]]]]]]^(.....",
"....+={]]]]]]]]]]_:<....",
"....%-]]]][}}|]]]]12....",
"....34]]][5665|]]];7....",
"....${]]]86666}]]]{9....",
"....9{]]]}66660]]]_9....",
"....a;]]]|566bc]]];7....",
"....%-]]]]|}}c]]]]-d....",
"....+,{]]]]]]]]]]e=f....",
".....'^]]]]]]]]]]g%.....",
".....)!^_]]]]]]eghi.....",
"......)(:1j{{j-=%i......",
"........<2k$$7lf........",
"........................",
"........................",
"........................",
"........................"};
