/* XPM */
static char * maximize_active_xpm[] = {
"24 24 34 1",
" 	c None",
".	c #2F2F2F",
"+	c #2E392E",
"@	c #2F6F2D",
"#	c #2F932C",
"$	c #2FA52C",
"%	c #2F932D",
"&	c #306E2D",
"*	c #2F582E",
"=	c #2FA62D",
"-	c #2CB835",
";	c #29C33B",
">	c #28C73F",
",	c #2CB834",
"'	c #2F572D",
")	c #2FAD2E",
"!	c #2AC43C",
"~	c #28C940",
"{	c #29C33C",
"]	c #2FA72D",
"^	c #2F392F",
"/	c #2DB834",
"(	c #2F6E2C",
"_	c #2AC23B",
":	c #2AC33C",
"<	c #28C83F",
"[	c #2FA42C",
"}	c #29C73E",
"|	c #2FA42D",
"1	c #2F382E",
"2	c #2F562E",
"3	c #2FA52D",
"4	c #2AC23C",
"5	c #30912C",
"........................",
"........................",
"........................",
"........................",
"........................",
"........+@#$$%&+........",
".......*=-;>>;,='.......",
"......*)!~~~~~~{)'......",
".....+=!~~~~~~~~{]^.....",
".....@-~~~~~~~~~~/(.....",
".....#_~~~~~~~~~~:%.....",
".....$<~~~~~~~~~~<[.....",
".....[<~~~~~~~~~~}[.....",
".....#_~~~~~~~~~~:%.....",
".....&,~~~~~~~~~~/(.....",
".....+={~~~~~~~~{|1.....",
"......'){~~~~~~{)2......",
".......'3/:<<4/|2.......",
"........^(5$$5(1........",
"........................",
"........................",
"........................",
"........................",
"........................"};
