/* XPM */
static char * top_left_active_xpm[] = {
"2 28 3 1",
" 	c None",
".	c #373737",
"+	c #2F2F2F",
" .",
".+",
"++",
"++",
"++",
"++",
"++",
"++",
"++",
"++",
"++",
"++",
"++",
"++",
"++",
"++",
"++",
"++",
"++",
"++",
"++",
"++",
"++",
"++",
"++",
"++",
"++",
"++"};
